<?xml version="1.0" encoding="UTF-8" standalone="no"?>
<!-- Created with Inkscape (http://www.inkscape.org/) -->

<svg
   width="32"
   height="32"
   viewBox="0 0 8.4666662 8.4666662"
   version="1.1"
   id="svg1"
   xml:space="preserve"
   inkscape:version="1.3.2 (091e20ef0f, 2023-11-25)"
   sodipodi:docname="jupyter-lmod.svg"
   xmlns:inkscape="http://www.inkscape.org/namespaces/inkscape"
   xmlns:sodipodi="http://sodipodi.sourceforge.net/DTD/sodipodi-0.dtd"
   xmlns="http://www.w3.org/2000/svg"
   xmlns:svg="http://www.w3.org/2000/svg"><sodipodi:namedview
     id="namedview1"
     pagecolor="#ffffff"
     bordercolor="#999999"
     borderopacity="1"
     inkscape:showpageshadow="2"
     inkscape:pageopacity="0"
     inkscape:pagecheckerboard="0"
     inkscape:deskcolor="#d1d1d1"
     inkscape:document-units="mm"
     inkscape:zoom="19.591506"
     inkscape:cx="14.904418"
     inkscape:cy="12.91376"
     inkscape:window-width="1920"
     inkscape:window-height="1058"
     inkscape:window-x="0"
     inkscape:window-y="0"
     inkscape:window-maximized="1"
     inkscape:current-layer="layer1" /><defs
     id="defs1" /><g
     inkscape:label="Layer 1"
     inkscape:groupmode="layer"
     id="layer1"><g
       id="g4"
       transform="matrix(0.24730928,0,0,0.24730928,-26.765244,-33.966451)"><path
         class="jp-icon3"
         fill="#616161"
         d="m 118.11607,166.56894 -6.68073,-3.88946 v -7.88349 l 0.003,-8.06636 3.44022,2.05874 3.21172,1.87586 0.1345,-0.1345 0.1345,-0.1345 -3.36355,-1.97774 -3.36355,-1.97775 0.62905,-0.39459 0.62904,-0.39459 5.9021,-3.47511 6.27167,-3.76158 6.70067,4.00073 6.8158,3.99888 -3.47863,2.06258 -3.32009,1.93863 0.12917,0.12918 0.12918,0.12917 3.17746,-1.88026 3.49831,-2.07884 -0.0294,8.10972 v 7.91114 l -6.51079,3.73052 c -2.31449,1.39679 -7.00686,4.04399 -7.00686,4.04399 l -0.0161,-7.78361 -0.29063,-0.007 -0.0103,7.78269 z m 10.04152,-6.37887 2.98921,-1.80369 0.0726,-3.68642 0.0726,-3.68641 -2.96326,-1.83004 -3.27093,-2.08598 -3.26386,2.08598 -2.96327,1.83004 0.0726,3.68684 0.0726,3.68685 2.91041,1.78278 3.02513,1.85175 0.214,0.006 z"
         id="path1"
         sodipodi:nodetypes="cccccccccccccccccccccccccccccccccccccccccccc" /><path
         class="jp-icon3"
         style="fill:none;stroke:#616161;stroke-width:0.352778;stroke-linecap:butt;stroke-linejoin:miter;stroke-dasharray:1.05833, 1.05833;stroke-dashoffset:0;stroke-opacity:1"
         d="m 125.10228,154.76809 -6.29921,3.63685"
         id="path2"
         sodipodi:nodetypes="cc" /><path
         class="jp-icon3"
         style="fill:none;stroke:#616161;stroke-width:0.352778;stroke-linecap:butt;stroke-linejoin:miter;stroke-dasharray:1.05833, 1.05833;stroke-dashoffset:0;stroke-opacity:1"
         d="m 125.08161,154.74026 6.43769,3.7168"
         id="path3" /><path
         class="jp-icon3"
         style="fill:none;stroke:#616161;stroke-width:0.352778;stroke-linecap:butt;stroke-linejoin:miter;stroke-dasharray:1.05833, 1.05833;stroke-dashoffset:1.5875;stroke-opacity:1"
         d="m 125.12079,146.8656 v 7.9136"
         id="path4" /></g></g></svg>
