<?xml version="1.0" encoding="UTF-8" standalone="no"?>
<svg
   inkscape:version="1.3.2 (091e20ef0f, 2023-11-25)"
   sodipodi:docname="tmod_logo.svg"
   viewBox="0 0 32 32"
   height="32"
   width="32"
   xml:space="preserve"
   id="svg2"
   version="1.1"
   xmlns:inkscape="http://www.inkscape.org/namespaces/inkscape"
   xmlns:sodipodi="http://sodipodi.sourceforge.net/DTD/sodipodi-0.dtd"
   xmlns="http://www.w3.org/2000/svg"
   xmlns:svg="http://www.w3.org/2000/svg"
   xmlns:rdf="http://www.w3.org/1999/02/22-rdf-syntax-ns#"
   xmlns:cc="http://creativecommons.org/ns#"
   xmlns:dc="http://purl.org/dc/elements/1.1/"><metadata
     id="metadata8"><rdf:RDF><cc:Work
         rdf:about=""><dc:format>image/svg+xml</dc:format><dc:type
           rdf:resource="http://purl.org/dc/dcmitype/StillImage" /></cc:Work></rdf:RDF></metadata><defs
     id="defs6" /><sodipodi:namedview
     inkscape:current-layer="g10"
     inkscape:window-maximized="1"
     inkscape:window-y="0"
     inkscape:window-x="0"
     inkscape:cy="16.772384"
     inkscape:cx="22.87972"
     inkscape:zoom="10.970414"
     showgrid="false"
     id="namedview4"
     inkscape:window-height="1058"
     inkscape:window-width="1920"
     inkscape:pageshadow="2"
     inkscape:pageopacity="0"
     guidetolerance="10"
     gridtolerance="10"
     objecttolerance="10"
     borderopacity="1"
     bordercolor="#666666"
     pagecolor="#ffffff"
     inkscape:showpageshadow="2"
     inkscape:pagecheckerboard="0"
     inkscape:deskcolor="#d1d1d1" /><g
     transform="matrix(1.3333333,0,0,-1.3333333,0,264)"
     inkscape:label="ink_ext_XXXXXX"
     inkscape:groupmode="layer"
     id="g10"><g
       transform="matrix(0.0114067,0,0,0.0114067,1.8675227,174.70757)"
       id="g12"
       style="fill:#000000"><path
         inkscape:connector-curvature="0"
         id="path18"
         class="jp-icon3"
         fill="#616161"
         style="fill-opacity:1;fill-rule:evenodd;stroke:none"
         d="m 881.828,1427.73 1.856,-1.02 c 104.457,60.06 207.326,118.83 311.786,178.88 38.04,21.19 49.7,21.68 85.15,2.13 L 1566,1449.19 c 40.36,-25.33 53.15,-42.77 56.44,-82.68 v -82.74 l -0.58,-26.21 c -3.56,-185.02 -3.77,-371.185 -2.09,-555.576 1.29,-139.664 -4.77,-140.656 -142.13,-220.269 -62.5,-36.238 -111.64,-63.567 -174.16,-99.805 -31.32,-17.191 -63.99,0.895 -63.99,46.856 l -0.31,373.578 -357.352,-206.25 -357.348,206.25 -0.312,-373.578 c 0,-45.961 -32.668,-64.047 -63.992,-46.856 -62.516,36.238 -111.656,63.567 -174.16,99.805 -137.352,79.613 -143.418,80.605 -142.129,220.269 1.687,184.391 1.476,370.556 -2.082,555.576 l -0.582,26.21 v 82.74 c 3.289,39.91 16.074,57.35 56.437,82.68 l 285.379,158.53 c 35.445,19.55 47.109,19.06 85.152,-2.13 104.457,-60.05 207.325,-118.82 311.782,-178.88 z m 0.199,-396.5 295.413,164.75 -293.245,161.7 -1.871,-1.05 -0.496,0.28 -0.496,-0.28 -1.871,1.05 -293.242,-161.7 z M 523.191,1230.5 822.727,1391.65 524.922,1560.23 232.613,1399.66 Z m 717.279,0 -299.54,161.15 297.81,168.58 292.31,-160.57 -290.58,-169.16" /><path
         inkscape:connector-curvature="0"
         id="path20"
         class="jp-icon3"
         fill="#616161"
         style="fill-opacity:1;fill-rule:evenodd;stroke:none"
         d="m 882.098,596.25 -0.27,-0.156 -357.348,206.25 -0.312,-373.578 c 0,-45.961 -32.668,-64.047 -63.992,-46.856 -62.516,36.238 -111.656,63.567 -174.16,99.805 l -18.993,11.015 c -68.285,49.633 -100.839,66.809 -115.695,101.594 -7.398,24.547 -7.91,56.973 -7.441,107.66 1.687,184.391 1.476,370.556 -2.082,555.576 l -0.582,26.21 v 82.74 c 1.375,16.75 4.437,29.55 10.504,40.63 -7.997,-21.97 7.582,-43.39 31.121,-55.22 26.578,-13.33 658.203,-370.326 658.203,-370.326 4.449,-2.766 17.844,-11.938 41.047,-13.309 V 596.25" /><path
         inkscape:connector-curvature="0"
         id="path22"
         class="jp-icon3"
         fill="#616161"
         style="fill-opacity:1;fill-rule:nonzero;stroke:none"
         d="m 2.59375,1283.78 c -5.23047,206.16 -14.62505,203.38 193.97625,321.76 175.309,99.42 351.95,200.42 524.493,305.23 143.687,87.3 173.847,87.3 317.537,0 172.54,-104.81 349.19,-205.81 524.49,-305.23 208.61,-118.38 199.21,-115.6 193.98,-321.76 -5.15,-204.66 -3.55,-408.913 -2.89,-612.339 0.56,-175.82 -25.26,-200.011 -179,-289.406 L 1006.47,51.375 c -109.263,-63.5391 -144.017,-63.5391 -253.275,0 L 184.48,382.035 C 30.7422,471.43 4.91797,495.621 5.48438,671.441 6.13672,874.867 7.73828,1079.12 2.59375,1283.78 Z M 756.242,1863.7 C 582.973,1759.68 404.266,1654.59 228.262,1554.83 46.0195,1451.53 59.2031,1476.18 62.8867,1284.57 66.8008,1080.88 67.0391,875.918 65.168,672.898 63.7539,519.133 70.4414,518.055 221.656,430.395 L 775.813,109.133 c 102.175,-59.2189 105.859,-59.2189 208.035,0 l 554.162,321.262 c 151.21,87.66 157.9,88.738 156.48,242.503 -1.87,203.02 -1.63,407.982 2.28,611.672 3.69,191.61 16.87,166.96 -165.37,270.26 -176,99.76 -354.71,204.85 -527.98,308.87 -113.514,68.15 -133.666,68.15 -247.178,0" /></g></g></svg>
